<svg xmlns="http://www.w3.org/2000/svg" viewBox="0 0 96 96">
  <rect width="96" height="96" fill="#0A0C10"/>
  <line x1="48" y1="48" x2="78.41" y2="78.41" stroke="rgba(232,234,237,0.13)" stroke-width="1.25"/>
  <line x1="48" y1="48" x2="48" y2="91" stroke="rgba(232,234,237,0.13)" stroke-width="1.25"/>
  <line x1="48" y1="48" x2="17.59" y2="78.41" stroke="rgba(232,234,237,0.13)" stroke-width="1.25"/>
  <line x1="48" y1="48" x2="5" y2="48" stroke="rgba(232,234,237,0.13)" stroke-width="1.25"/>
  <line x1="48" y1="48" x2="17.59" y2="17.59" stroke="rgba(232,234,237,0.13)" stroke-width="1.25"/>
  <line x1="48" y1="48" x2="48" y2="5" stroke="rgba(232,234,237,0.13)" stroke-width="1.25"/>
  <line x1="48" y1="48" x2="78.41" y2="17.59" stroke="rgba(232,234,237,0.13)" stroke-width="1.25"/>
  <line x1="48" y1="48" x2="91" y2="48" stroke="rgba(232,234,237,0.13)" stroke-width="1.25"/>
  <polygon points="78.41,78.41 48,91 17.59,78.41 5,48 17.59,17.59 48,5 78.41,17.59 91,48" fill="none" stroke="rgba(232,234,237,0.13)" stroke-width="1.25" stroke-linejoin="round"/>
  <polygon points="68.37,68.37 48,61.35 31.02,64.98 37.85,48 28.57,28.57 48,38.92 66.11,29.89 60.28,48" fill="none" stroke="rgba(232,234,237,0.30)" stroke-width="1.875" stroke-dasharray="4.5 4" stroke-linejoin="round"/>
  <polygon points="78.41,78.41 48,66.06 23.07,72.93 35.1,48 19.11,19.11 48,36.82 74.76,21.24 64.34,48" fill="#E3A93E" fill-opacity="0.13" stroke="#E3A93E" stroke-width="2.75" stroke-linejoin="round"/>
  <circle cx="78.41" cy="78.41" r="2.75" fill="#7aa7dd"/>
  <circle cx="23.07" cy="72.93" r="2.75" fill="#7aa7dd"/>
  <circle cx="19.11" cy="19.11" r="2.75" fill="#7aa7dd"/>
  <circle cx="74.76" cy="21.24" r="2.75" fill="#7aa7dd"/>
  <circle cx="48" cy="48" r="2.625" fill="#7aa7dd"/>
</svg>
