<svg xmlns="http://www.w3.org/2000/svg" viewBox="0 0 32 32">
  <rect width="32" height="32" fill="#0A0C10"/>
  <polygon points="16.0,3.0 26.2,7.9 28.7,18.9 21.6,27.7 10.4,27.7 3.3,18.9 5.8,7.9" fill="none" stroke="#3A4150" stroke-width="0.6"/>
  <polygon points="16.0,6.9 23.1,10.3 24.9,18.0 19.9,24.2 12.1,24.2 7.1,18.0 8.9,10.3" fill="none" stroke="#202733" stroke-width="0.5"/>
  <polygon points="16.0,10.8 20.1,12.8 21.1,17.2 18.3,20.7 13.7,20.7 10.9,17.2 11.9,12.8" fill="none" stroke="#202733" stroke-width="0.5"/>
  <line x1="16" y1="16" x2="16.0" y2="3.0" stroke="#202733" stroke-width="0.6"/><line x1="16" y1="16" x2="26.2" y2="7.9" stroke="#202733" stroke-width="0.6"/><line x1="16" y1="16" x2="28.7" y2="18.9" stroke="#202733" stroke-width="0.6"/><line x1="16" y1="16" x2="21.6" y2="27.7" stroke="#202733" stroke-width="0.6"/><line x1="16" y1="16" x2="10.4" y2="27.7" stroke="#202733" stroke-width="0.6"/><line x1="16" y1="16" x2="3.3" y2="18.9" stroke="#202733" stroke-width="0.6"/><line x1="16" y1="16" x2="5.8" y2="7.9" stroke="#202733" stroke-width="0.6"/>
  <polygon points="16.0,4.0 22.3,11.0 26.1,18.3 19.3,22.8 11.0,26.3 8.4,17.7 8.1,9.7" fill="none" stroke="#E2A33B" stroke-width="1.6" stroke-linejoin="round"/>
  <circle cx="16.0" cy="4.0" r="1.25" fill="#E2A33B"/><circle cx="22.3" cy="11.0" r="1.25" fill="#E2A33B"/><circle cx="26.1" cy="18.3" r="1.25" fill="#E2A33B"/><circle cx="19.3" cy="22.8" r="1.25" fill="#E2A33B"/><circle cx="11.0" cy="26.3" r="1.25" fill="#E2A33B"/><circle cx="8.4" cy="17.7" r="1.25" fill="#E2A33B"/><circle cx="8.1" cy="9.7" r="1.25" fill="#E2A33B"/>
  <circle cx="16" cy="16" r="1.5" fill="#F3BE62"/>
</svg>